<?xml version="1.0" encoding="utf-8"?>
<!-- Generator: Adobe Illustrator 21.0.2, SVG Export Plug-In . SVG Version: 6.00 Build 0)  -->
<svg version="1.1" id="Layer_1" xmlns="http://www.w3.org/2000/svg" xmlns:xlink="http://www.w3.org/1999/xlink" x="0px" y="0px"
	 viewBox="0 0 234 60" style="enable-background:new 0 0 234 60;" xml:space="preserve">
<style type="text/css">
	.st0{fill:#209FF1;}
	.st1{fill:#5C5E60;}
</style>
<g>
	<g>
		<path class="st0" d="M28.4,24.9c0.4,0,0.6,0.2,0.6,0.6v9.4c0,0.1,0,0.2,0,0.3s0,0.2-0.1,0.4c0,0.1-0.1,0.2-0.1,0.3
			s-0.1,0.2-0.2,0.4c-0.1,0.2-0.1,0.3-0.2,0.3c0,0.1-0.1,0.2-0.3,0.4c-0.1,0.2-0.2,0.3-0.3,0.4s-0.2,0.2-0.3,0.4
			c-0.2,0.2-0.3,0.4-0.3,0.5c-1.3,1.7-3.3,3-6.1,3.8c-1.4,0.5-3.3,0.7-5.7,0.7c-2.1,0-4.1-0.4-5.9-1.2s-3.5-2-5-3.5
			c-1.4-1.4-2.6-3.1-3.4-5c-0.8-1.9-1.2-3.9-1.2-6c0-2.2,0.4-4.3,1.2-6.2s2-3.6,3.5-5c1.5-1.4,3.1-2.5,5-3.3c1.9-0.8,3.9-1.2,6-1.2
			c3.2,0,5.9,0.6,8.3,1.9c1.2,0.7,2.6,1.7,4,3c0.3,0.3,0.3,0.6,0,0.9l-4,3.9c-0.2,0.2-0.4,0.3-0.7,0.2c-0.2-0.1-0.6-0.4-1.1-0.9
			c-0.9-0.8-2-1.4-3.4-1.7c-0.8-0.2-1.7-0.3-2.8-0.3c-2.3,0-4.2,0.8-5.8,2.5c-1.6,1.7-2.4,3.8-2.4,6.3c0,2.5,0.8,4.5,2.3,6
			c1.6,1.6,3.6,2.4,6.1,2.4c1.8,0,3.3-0.3,4.3-0.9c0.7-0.4,1.2-0.8,1.4-1.3v-2.6h-5.6c-0.4,0-0.6-0.2-0.6-0.6v-4.5
			c0-0.4,0.2-0.6,0.6-0.6H28.4z"/>
		<path class="st0" d="M43,42.6c-2.8,0-5-0.9-6.8-2.7c-1.9-2-2.8-4.6-2.8-7.9V19.2c0-0.4,0.2-0.6,0.6-0.6h5.8c0.4,0,0.6,0.2,0.6,0.6
			V31c0,1.6,0.5,2.8,1.4,3.7c0.8,0.8,1.8,1.2,2.8,1.2c1,0,1.9-0.3,2.6-0.9c1-0.9,1.6-2.2,1.7-4V19.2c0-0.4,0.2-0.6,0.6-0.6h6
			c0.4,0,0.6,0.2,0.6,0.6v22.5c0,0.4-0.2,0.6-0.6,0.6h-3.9c-0.7,0-1.3-0.2-1.8-0.6c-0.5-0.4-0.8-1-0.9-1.6
			C48.1,41.8,46.1,42.6,43,42.6z"/>
		<path class="st0" d="M73.9,18.2c0.9,0,1.8,0.1,2.7,0.4c0.3,0.1,0.5,0.3,0.5,0.7L76.4,25c0,0.4-0.3,0.6-0.7,0.5
			c-0.6-0.1-1.1-0.1-1.6,0c-1.8,0.1-3.2,0.7-4.2,1.8c-1.2,1.3-1.8,3.2-1.8,5.6v8.8c0,0.4-0.2,0.6-0.6,0.6h-6c-0.4,0-0.6-0.2-0.6-0.6
			V19.2c0-0.4,0.2-0.6,0.6-0.6h3.4c0.9,0,1.7,0.3,2.3,0.9c0.6,0.6,0.9,1.4,0.9,2.3v0.4c0.4-1,1.1-1.9,2-2.7
			C71,18.7,72.3,18.2,73.9,18.2z"/>
		<path class="st0" d="M90.4,42.6c-2.8,0-5-0.9-6.8-2.7c-1.9-2-2.8-4.6-2.8-7.9V19.2c0-0.4,0.2-0.6,0.6-0.6h5.8
			c0.4,0,0.6,0.2,0.6,0.6V31c0,1.6,0.5,2.8,1.4,3.7c0.8,0.8,1.8,1.2,2.8,1.2c1,0,1.9-0.3,2.6-0.9c1-0.9,1.6-2.2,1.7-4V19.2
			c0-0.4,0.2-0.6,0.6-0.6h6c0.4,0,0.6,0.2,0.6,0.6v22.5c0,0.4-0.2,0.6-0.6,0.6h-3.9c-0.7,0-1.3-0.2-1.8-0.6c-0.5-0.4-0.8-1-0.9-1.6
			C95.6,41.8,93.6,42.6,90.4,42.6z"/>
		<path class="st0" d="M136.1,24.9c0.4,0,0.6,0.2,0.6,0.6v9.4c0,0.1,0,0.2,0,0.3s0,0.2-0.1,0.4c0,0.1-0.1,0.2-0.1,0.3
			c0,0.1-0.1,0.2-0.2,0.4c-0.1,0.2-0.1,0.3-0.2,0.3c0,0.1-0.1,0.2-0.3,0.4c-0.1,0.2-0.2,0.3-0.3,0.4s-0.2,0.2-0.3,0.4
			c-0.2,0.2-0.3,0.4-0.3,0.5c-1.3,1.7-3.3,3-6.1,3.8c-1.4,0.5-3.3,0.7-5.7,0.7c-2.1,0-4.1-0.4-5.9-1.2c-1.9-0.8-3.5-2-5-3.5
			c-1.4-1.4-2.6-3.1-3.4-5c-0.8-1.9-1.2-3.9-1.2-6c0-2.2,0.4-4.3,1.2-6.2c0.8-1.9,2-3.6,3.5-5c1.5-1.4,3.1-2.5,5-3.3
			c1.9-0.8,3.9-1.2,6-1.2c3.2,0,5.9,0.6,8.3,1.9c1.2,0.7,2.6,1.7,4,3c0.3,0.3,0.3,0.6,0,0.9l-4,3.9c-0.2,0.2-0.4,0.3-0.7,0.2
			c-0.2-0.1-0.6-0.4-1.1-0.9c-0.9-0.8-2-1.4-3.4-1.7c-0.8-0.2-1.7-0.3-2.8-0.3c-2.3,0-4.2,0.8-5.8,2.5c-1.6,1.7-2.4,3.8-2.4,6.3
			c0,2.5,0.8,4.5,2.3,6c1.6,1.6,3.6,2.4,6.1,2.4c1.8,0,3.3-0.3,4.3-0.9c0.7-0.4,1.2-0.8,1.4-1.3v-2.6H124c-0.4,0-0.6-0.2-0.6-0.6
			v-4.5c0-0.4,0.2-0.6,0.6-0.6H136.1z"/>
		<path class="st1" d="M154.8,18.7c0.3,0.1,0.4,0.3,0.4,0.6v2.9c0,0.2-0.1,0.3-0.2,0.4c-0.1,0.1-0.3,0.1-0.4,0.1
			c-1-0.3-1.8-0.5-2.3-0.5c-1.8,0-3.2,0.6-4.4,1.7c-1.4,1.3-2.1,3.1-2.3,5.5v12.5c0,0.4-0.2,0.5-0.5,0.5h-2.5
			c-0.4,0-0.5-0.2-0.5-0.5V19c0-0.2,0.1-0.3,0.3-0.3c0.9,0,1.7,0.3,2.4,1s1,1.4,1,2.4v0c0.8-1.1,1.8-2,3-2.7c1.2-0.7,2.4-1,3.7-1
			C153.3,18.4,154.1,18.5,154.8,18.7z"/>
		<path class="st1" d="M173.1,19.2c1.5,0.6,2.8,1.5,3.9,2.7c1.1,1.1,2,2.5,2.6,4c0.6,1.5,0.9,3.1,0.9,4.7c0,1.6-0.3,3.2-0.9,4.6
			c-0.6,1.5-1.5,2.8-2.6,3.9c-1.1,1.1-2.4,2-3.9,2.7c-1.5,0.7-3,1-4.6,1c-1.7,0-3.2-0.3-4.7-1c-1.5-0.6-2.7-1.5-3.8-2.7
			c-1.1-1.1-2-2.5-2.6-3.9c-0.6-1.5-0.9-3-0.9-4.6c0-1.6,0.3-3.2,0.9-4.7c0.6-1.5,1.5-2.8,2.6-4c2.3-2.4,5.2-3.6,8.5-3.6
			C170.1,18.3,171.6,18.6,173.1,19.2z M162.5,24.5c-0.8,0.8-1.4,1.7-1.8,2.8c-0.4,1.1-0.6,2.2-0.6,3.3c0,2.3,0.8,4.3,2.4,6
			c1.6,1.7,3.6,2.5,5.9,2.5s4.3-0.8,5.9-2.5c1.6-1.7,2.4-3.7,2.4-6c0-1.1-0.2-2.2-0.6-3.3c-0.4-1.1-1-2-1.8-2.8
			c-1.6-1.7-3.6-2.5-5.9-2.5S164.1,22.8,162.5,24.5z"/>
		<path class="st1" d="M204.8,18.7c0.2,0,0.3,0.1,0.4,0.2c0.1,0.1,0.2,0.2,0.2,0.4v22.8c0,0.2-0.1,0.3-0.3,0.3h0
			c-0.9,0-1.7-0.3-2.3-1s-0.9-1.4-0.9-2.4v-0.1c-0.9,1.1-2,2.1-3.3,2.8c-1.3,0.7-2.7,1.1-4.1,1.1c-2.9,0-5.2-0.9-6.9-2.7
			c-1.9-1.9-2.9-4.6-2.9-8.1V19.2c0-0.4,0.2-0.5,0.5-0.5h2.6c0.2,0,0.3,0,0.4,0.1c0.1,0.1,0.1,0.2,0.1,0.4v12c0,2.7,0.8,4.8,2.3,6.2
			c1.2,1.1,2.7,1.7,4.7,1.7c1.7,0,3.2-0.7,4.5-2c1.4-1.5,2.1-3.5,2.1-6.2V19.2c0-0.2,0.1-0.3,0.2-0.4c0.1-0.1,0.2-0.1,0.4-0.1H204.8
			z"/>
		<path class="st1" d="M226.7,19.2c1.4,0.6,2.7,1.5,3.8,2.6c1.1,1.1,1.9,2.4,2.5,3.9s0.9,3.1,0.9,4.7c0,1.6-0.3,3.2-0.9,4.7
			c-0.6,1.5-1.4,2.8-2.5,3.9c-1.1,1.1-2.3,2-3.8,2.7c-1.4,0.6-3,1-4.6,1c-2.1,0-3.9-0.5-5.4-1.6c-1.4-1-2.3-1.9-2.7-2.9v9.8
			c0,0.4-0.2,0.5-0.5,0.5h-2.6c-0.4,0-0.5-0.2-0.5-0.5V19c0-0.2,0.1-0.3,0.3-0.3c1,0,1.8,0.3,2.4,1c0.7,0.7,1,1.5,1,2.4v0.6
			c0.2-0.4,0.5-0.9,1-1.4s1-1,1.7-1.4c1.7-1.1,3.5-1.6,5.5-1.6C223.8,18.3,225.3,18.6,226.7,19.2z M216.4,24.5
			c-0.7,0.8-1.3,1.7-1.8,2.7s-0.6,2.2-0.6,3.3c0,2.3,0.8,4.4,2.4,6c0.7,0.8,1.6,1.4,2.6,1.9s2,0.7,3.1,0.7c2.2,0,4.2-0.8,5.8-2.5
			c1.6-1.7,2.4-3.7,2.4-6c0-1.1-0.2-2.2-0.6-3.3c-0.4-1.1-1-2-1.7-2.8c-1.6-1.7-3.5-2.5-5.8-2.5C219.9,22,217.9,22.8,216.4,24.5z"/>
	</g>
</g>
</svg>
